<svg xmlns="http://www.w3.org/2000/svg" width="24" height="24" viewBox="0 0 24 24">
  <g fill="#FFF" fill-rule="evenodd">
    <path d="M11.007742 9.25084964C10.4185058 9.73511309 9.9304778 10.3405388 9.58304943 11.0321424 9.39050388 11.0108012 9.19591885 11 9 11 7.05804817 11 5.36235785 12.0543708 4.45416446 13.6218771 3.35086348 13.1424092 2.4680491 12.250859 2 11.1415052 2.55978047 11.377683 3.17501846 11.5082526 3.82075261 11.5082526 6.40958738 11.5082526 8.50825261 9.40958738 8.50825261 6.82075261 8.50825261 6.17501846 8.37768303 5.55978047 8.14150522 5 9.80572543 5.70215361 10.9797759 7.33774169 11.007742 9.25084964L11.007742 9.25084964zM9 20C6.92893219 20 5.25 18.3210678 5.25 16.25 5.25 14.1789322 6.92893219 12.5 9 12.5 9.55461758 12.5 10.0811139 12.6204015 10.5547769 12.8364924 10.8708597 10.9431294 12.5168994 9.5 14.5 9.5 16.709139 9.5 18.5 11.290861 18.5 13.5 18.5 13.9473885 18.4265511 14.3776221 18.2910537 14.7793003 18.6559242 14.6004278 19.066234 14.5 19.5 14.5 21.0187831 14.5 22.25 15.7312169 22.25 17.25 22.25 18.7687831 21.0187831 20 19.5 20L9 20z"/>
  </g>
</svg>
