<svg xmlns="http://www.w3.org/2000/svg" width="24" height="24" viewBox="0 0 24 24">
  <g fill="none" fill-rule="evenodd">
    <path fill="#FFF" d="M13.1063824,7.23829199 C13.8347787,6.47532622 14.8618802,6 16,6 C18.209139,6 20,7.790861 20,10 C20,11.0637932 19.5847303,12.0305951 18.9074552,12.7471411 C18.3473293,12.3614407 17.6901061,12.1066122 16.9799277,12.0267975 C16.7865563,9.75754574 15.2153345,7.88133717 13.1063824,7.23829199 L13.1063824,7.23829199 Z"/>
    <path stroke="#FFF" stroke-linecap="round" stroke-linejoin="round" stroke-width="1.5" d="M14.8712868,2.84874961 L14.8712868,4.34874961" transform="rotate(-10 14.871 3.599)"/>
    <path stroke="#FFF" stroke-linecap="round" stroke-linejoin="round" stroke-width="1.5" d="M19.7282468,3.92551171 L19.7282468,5.42551171" transform="rotate(35 19.728 4.676)"/>
    <path stroke="#FFF" stroke-linecap="round" stroke-linejoin="round" stroke-width="1.5" d="M10.6755117,5.52175316 L10.6755117,7.02175316" transform="rotate(-55 10.676 6.272)"/>
    <path stroke="#FFF" stroke-linecap="round" stroke-linejoin="round" stroke-width="1.5" d="M21.3244883,12.9782468 L21.3244883,14.4782468" transform="rotate(-55 21.324 13.728)"/>
    <path stroke="#FFF" stroke-linecap="round" stroke-linejoin="round" stroke-width="1.5" d="M22.4012504,8.12128685 L22.4012504,9.62128685" transform="rotate(80 22.401 8.871)"/>
    <path fill="#FFF" d="M6,19 C3.92893219,19 2.25,17.3210678 2.25,15.25 C2.25,13.1789322 3.92893219,11.5 6,11.5 C6.55461758,11.5 7.08111389,11.6204015 7.55477694,11.8364924 C7.87085973,9.94312945 9.51689939,8.5 11.5,8.5 C13.709139,8.5 15.5,10.290861 15.5,12.5 C15.5,12.9473885 15.4265511,13.3776221 15.2910537,13.7793003 C15.6559242,13.6004278 16.066234,13.5 16.5,13.5 C18.0187831,13.5 19.25,14.7312169 19.25,16.25 C19.25,17.7687831 18.0187831,19 16.5,19 L6,19 Z"/>
  </g>
</svg>
