<svg xmlns="http://www.w3.org/2000/svg" width="24" height="24" viewBox="0 0 24 24">
  <g fill="none" fill-rule="evenodd">
    <path fill="#FFF" d="M10.007742 6.25084964C9.41850582 6.73511309 8.9304778 7.34053876 8.58304943 8.0321424 8.39050388 8.01080117 8.19591885 8 8 8 6.05804817 8 4.36235785 9.05437084 3.45416446 10.6218771 2.35086348 10.1424092 1.4680491 9.25085901 1 8.14150522 1.55978047 8.37768303 2.17501846 8.50825261 2.82075261 8.50825261 5.40958738 8.50825261 7.50825261 6.40958738 7.50825261 3.82075261 7.50825261 3.17501846 7.37768303 2.55978047 7.14150522 2 8.80572543 2.70215361 9.97977589 4.33774169 10.007742 6.25084964L10.007742 6.25084964zM8 17C5.92893219 17 4.25 15.3210678 4.25 13.25 4.25 11.1789322 5.92893219 9.5 8 9.5 8.55461758 9.5 9.08111389 9.62040147 9.55477694 9.83649241 9.87085973 7.94312945 11.5168994 6.5 13.5 6.5 15.709139 6.5 17.5 8.290861 17.5 10.5 17.5 10.9473885 17.4265511 11.3776221 17.2910537 11.7793003 17.6559242 11.6004278 18.066234 11.5 18.5 11.5 20.0187831 11.5 21.25 12.7312169 21.25 14.25 21.25 15.7687831 20.0187831 17 18.5 17L8 17z"/>
    <path stroke="#FFF" stroke-linecap="round" stroke-linejoin="round" stroke-width="1.5" d="M9.80000019 19.7536011L8.75 22.2530518M14.8000002 18.7536011L13.75 21.2530518"/>
  </g>
</svg>
