<svg xmlns="http://www.w3.org/2000/svg" width="24" height="24" viewBox="0 0 24 24">
  <g fill="none" fill-rule="evenodd">
    <path fill="#FFF" d="M10.007742 5.25084964C9.41850582 5.73511309 8.9304778 6.34053876 8.58304943 7.0321424 8.39050388 7.01080117 8.19591885 7 8 7 6.05804817 7 4.36235785 8.05437084 3.45416446 9.62187709 2.35086348 9.1424092 1.4680491 8.25085901 1 7.14150522 1.55978047 7.37768303 2.17501846 7.50825261 2.82075261 7.50825261 5.40958738 7.50825261 7.50825261 5.40958738 7.50825261 2.82075261 7.50825261 2.17501846 7.37768303 1.55978047 7.14150522 1 8.80572543 1.70215361 9.97977589 3.33774169 10.007742 5.25084964L10.007742 5.25084964zM8 16C5.92893219 16 4.25 14.3210678 4.25 12.25 4.25 10.1789322 5.92893219 8.5 8 8.5 8.55461758 8.5 9.08111389 8.62040147 9.55477694 8.83649241 9.87085973 6.94312945 11.5168994 5.5 13.5 5.5 15.709139 5.5 17.5 7.290861 17.5 9.5 17.5 9.94738853 17.4265511 10.3776221 17.2910537 10.7793003 17.6559242 10.6004278 18.066234 10.5 18.5 10.5 20.0187831 10.5 21.25 11.7312169 21.25 13.25 21.25 14.7687831 20.0187831 16 18.5 16L8 16z"/>
    <path stroke="#FFF" stroke-linecap="round" stroke-linejoin="round" stroke-width="1.25" d="M16.5,19.63 L16.5,23.37"/>
    <path stroke="#FFF" stroke-linecap="round" stroke-linejoin="round" stroke-width="1.25" d="M16.5,19.63 L16.5,23.37" transform="rotate(-60 16.5 21.5)"/>
    <path stroke="#FFF" stroke-linecap="round" stroke-linejoin="round" stroke-width="1.25" d="M16.5,19.63 L16.5,23.37" transform="rotate(60 16.5 21.5)"/>
    <path stroke="#FFF" stroke-linecap="round" stroke-linejoin="round" stroke-width="1.25" d="M9.5,17.63 L9.5,21.37"/>
    <path stroke="#FFF" stroke-linecap="round" stroke-linejoin="round" stroke-width="1.25" d="M9.5,17.63 L9.5,21.37" transform="rotate(-60 9.5 19.5)"/>
    <path stroke="#FFF" stroke-linecap="round" stroke-linejoin="round" stroke-width="1.25" d="M9.5,17.63 L9.5,21.37" transform="rotate(60 9.5 19.5)"/>
  </g>
</svg>
