<svg xmlns="http://www.w3.org/2000/svg" width="24" height="24" viewBox="0 0 24 24">
  <g fill="none" fill-rule="evenodd" stroke="#FFF" stroke-linecap="round" stroke-linejoin="round" stroke-width="1.25">
    <path d="M15.25,5.5 L20.65,5.5"/>
    <path d="M15.275,5.45669873 L20.675,5.45669873" transform="rotate(60 17.975 5.457)"/>
    <path d="M15.325,5.45669873 L20.725,5.45669873" transform="scale(-1 1) rotate(60 0 -25.764)"/>
    <path d="M19.6949156,16.7020226 L8.69491565,16.7020226" transform="rotate(15 14.195 16.702)"/>
    <polyline points="10.365 14.382 10.926 15.826 9.718 16.796"/>
    <polyline points="18.025 19.022 17.464 17.578 18.672 16.608"/>
    <path d="M19.6949156,16.7020226 L8.69491565,16.7020226" transform="rotate(75 14.195 16.702)"/>
    <polyline points="14.289 12.225 13.319 13.433 11.875 12.872"/>
    <polyline points="14.1 21.179 15.071 19.971 16.515 20.532"/>
    <path d="M19.6949156,16.7020226 L8.69491565,16.7020226" transform="rotate(-45 14.195 16.702)"/>
    <polyline points="10.27 18.859 11.802 19.095 12.038 20.626"/>
    <polyline points="18.119 14.545 16.588 14.309 16.352 12.778"/>
    <polyline points="3.986 6.176 4.02 7.014 3.572 7.722"/>
    <polyline points="9.754 9.378 9.72 8.541 10.168 7.833"/>
    <path d="M3.00646769,6.74200152 L10.7338743,8.81255388 L3.00646769,6.74200152 Z"/>
    <polyline points="6.815 4.479 6.106 4.927 5.269 4.893"/>
    <polyline points="6.926 11.075 7.634 10.627 8.471 10.661"/>
    <path d="M5.83489481,3.91357439 L7.90544717,11.640981 L5.83489481,3.91357439 Z"/>
    <polyline points="4.042 9.474 4.784 9.864 5.173 10.606"/>
    <polyline points="9.699 6.08 8.957 5.691 8.567 4.949"/>
    <path d="M4.04174387,10.6057048 L9.69859811,4.94885058 L4.04174387,10.6057048 Z"/>
  </g>
</svg>
