<svg xmlns="http://www.w3.org/2000/svg" width="24" height="24" viewBox="0 0 24 24">
  <g fill="none" fill-rule="evenodd" stroke="#FFF" stroke-linecap="round" stroke-linejoin="round" stroke-width="1.25">
    <polyline points="3.986 5.176 4.02 6.014 3.572 6.722"/>
    <polyline points="9.754 8.378 9.72 7.541 10.168 6.833"/>
    <path d="M3.00646769,5.74200152 L10.7338743,7.81255388 L3.00646769,5.74200152 Z"/>
    <polyline points="6.815 3.479 6.106 3.927 5.269 3.893"/>
    <polyline points="6.926 10.075 7.634 9.627 8.471 9.661"/>
    <path d="M5.83489481,2.91357439 L7.90544717,10.640981 L5.83489481,2.91357439 Z"/>
    <polyline points="4.042 8.474 4.784 8.864 5.173 9.606"/>
    <polyline points="9.699 5.08 8.957 4.691 8.567 3.949"/>
    <path d="M4.04174387,9.60570482 L9.69859811,3.94885058 L4.04174387,9.60570482 Z"/>
    <path d="M20.6949156,15.7020226 L9.69491565,15.7020226" transform="rotate(15 15.195 15.702)"/>
    <polyline points="11.365 13.382 11.926 14.826 10.718 15.796"/>
    <polyline points="19.025 18.022 18.464 16.578 19.672 15.608"/>
    <path d="M20.6949156,15.7020226 L9.69491565,15.7020226" transform="rotate(75 15.195 15.702)"/>
    <polyline points="15.289 11.225 14.319 12.433 12.875 11.872"/>
    <polyline points="15.1 20.179 16.071 18.971 17.515 19.532"/>
    <path d="M20.6949156,15.7020226 L9.69491565,15.7020226" transform="rotate(-45 15.195 15.702)"/>
    <polyline points="11.27 17.859 12.802 18.095 13.038 19.626"/>
    <polyline points="19.119 13.545 17.588 13.309 17.352 11.778"/>
  </g>
</svg>
