<svg xmlns="http://www.w3.org/2000/svg" width="24" height="24" viewBox="0 0 24 24">
  <g fill="#FFF" fill-rule="evenodd">
    <path d="M14.5 22C16.9852814 22 19 19.9852814 19 17.5 19 15.0147186 14.5 10 14.5 10 14.5 10 10 15.0147186 10 17.5 10 19.9852814 12.0147186 22 14.5 22zM7 12C8.65685425 12 10 10.6568542 10 9 10 7.34314575 7 4 7 4 7 4 4 7.34314575 4 9 4 10.6568542 5.34314575 12 7 12zM18 9C19.1045695 9 20 7.99264069 20 6.75 20 5.50735931 18 3 18 3 18 3 16 5.50735931 16 6.75 16 7.99264069 16.8954305 9 18 9z"/>
  </g>
</svg>
