<svg xmlns="http://www.w3.org/2000/svg" width="24" height="24" viewBox="0 0 24 24">
  <g fill="none" fill-rule="evenodd">
    <path fill="#FFF" d="M4.69167927,16.1540363 C3.306132,15.401062 2.20412131,14.1924188 1.58679582,12.7292553 C2.42010461,13.0808378 3.33596939,13.2752082 4.29723183,13.2752082 C8.15106179,13.2752082 11.2752082,10.1510618 11.2752082,6.29723183 C11.2752082,5.33596939 11.0808378,4.42010461 10.7292553,3.58679582 C13.2367931,4.64475483 14.9967957,7.12625173 14.9967957,10.0188193 C14.9967957,10.5270681 14.9424582,11.0226259 14.8392757,11.5 L13.0449219,11.5 C11.66421,11.5 10.5449219,12.6192881 10.5449219,14 C10.5449219,14.1712329 10.562137,14.338445 10.5949309,14.5 L7.04492188,14.5 C5.96113171,14.5 5.03841699,15.1896459 4.69167927,16.1540363 L4.69167927,16.1540363 Z"/>
    <path stroke="#FFF" stroke-linecap="round" stroke-linejoin="round" stroke-width="1.5" d="M13 13.75L20 13.75M7 16.75L21 16.75M4 19.75L21 19.75"/>
  </g>
</svg>
