<svg xmlns="http://www.w3.org/2000/svg" width="24" height="24" viewBox="0 0 24 24">
  <g fill="none" fill-rule="evenodd">
    <path fill="#FFF" fill-rule="nonzero" d="M6.60215814,18.4510216 C8.95560515,20.2300109 11.5089311,20.0594792 12.4993896,19.9378662 C16.7387607,19.4173369 19.4137038,16.3708986 19.6678986,12.0439847 C19.6797273,11.8426349 19.6882605,11.6493212 19.7012957,11.3103262 C19.7859767,9.10810428 19.9134968,8.08657159 20.4029069,6.8059114 C20.6400251,6.18543411 20.9489225,5.6055131 21.3417568,5.06099597 C21.7389281,4.51046725 21.2586979,3.75760252 20.5920429,3.8856572 C18.6264407,4.26322065 17.1569566,4.13337038 14.7321011,3.57270653 C12.6136071,3.08287819 12.0812218,2.98762462 11.0750402,3.01890372 C10.8827074,3.02488275 10.6932274,3.03917602 10.505677,3.06220432 C5.77406847,3.64317279 2.50219918,7.8010487 3.07982238,12.5054121 C3.32624865,14.512393 4.07771894,15.8999069 5.37926268,17.3170574 C6.549788,13.6968355 8.56299141,10.9036331 11.581321,8.4207854 C11.9012124,8.15764594 12.3738523,8.20365248 12.6369918,8.52354387 C12.9001312,8.84343527 12.8541247,9.31607515 12.5342333,9.5792146 C9.55148271,12.0327953 7.64732348,14.7734816 6.60215814,18.4510216 L6.60215814,18.4510216 Z"/>
    <path stroke="#FFF" stroke-linecap="round" stroke-linejoin="round" stroke-width="1.5" d="M13,10.0826416 C9.74832886,12.7574337 7.56023093,16.0061035 6.75,21.2647059"/>
  </g>
</svg>
