<svg xmlns="http://www.w3.org/2000/svg" width="24" height="24" viewBox="0 0 24 24">
  <g fill="#FFF" fill-rule="evenodd">
    <path d="M20.1394437,13.7760404 C21.2312228,13.3274346 22,12.253496 22,11 C22,9.34314575 20.6568542,8 19,8 C18.9896656,8 18.9793434,8.00005225 18.9690336,8.00015651 C18.9894716,7.83630918 19,7.66938411 19,7.5 C19,5.290861 17.209139,3.5 15,3.5 C13.2499088,3.5 11.7623243,4.62392449 11.219666,6.18935387 C10.8351457,6.06638317 10.4253252,6 10,6 C7.790861,6 6,7.790861 6,10 C6,10.1693597 6.01052534,10.3362611 6.03095758,10.5000858 C6.12014291,10.5005802 6.2090782,10.5032106 6.29770372,10.5079584 C7.34604191,8.68632872 9.30746473,7.5 11.5,7.5 C14.4797554,7.5 16.9521827,9.67212978 17.4202578,12.5193651 C18.474204,12.6169762 19.4227721,13.0780407 20.1394437,13.7760404 L20.1394437,13.7760404 Z"/>
    <path d="M6,20 C3.790861,20 2,18.209139 2,16 C2,13.790861 3.790861,12 6,12 C6.41665567,12 6.81843235,12.0637045 7.19612127,12.1819049 C7.75960062,10.3397506 9.47334255,9 11.5,9 C13.9852814,9 16,11.0147186 16,13.5 C16,13.7345695 15.9820524,13.9649471 15.9474555,14.1898344 C16.2749642,14.0671106 16.6296448,14 17,14 C18.6568542,14 20,15.3431458 20,17 C20,18.6568542 18.6568542,20 17,20 L6,20 Z"/>
  </g>
</svg>
