<svg xmlns="http://www.w3.org/2000/svg" width="24" height="24" viewBox="0 0 24 24">
  <g fill="none" fill-rule="evenodd">
    <path stroke="#FFF" stroke-linecap="round" stroke-linejoin="round" stroke-width="1.25" d="M11.5,16.63 L11.5,20.37"/>
    <path stroke="#FFF" stroke-linecap="round" stroke-linejoin="round" stroke-width="1.25" d="M11.5,16.63 L11.5,20.37" transform="rotate(-60 11.5 18.5)"/>
    <path stroke="#FFF" stroke-linecap="round" stroke-linejoin="round" stroke-width="1.25" d="M11.5,16.63 L11.5,20.37" transform="rotate(60 11.5 18.5)"/>
    <path fill="#FFF" d="M7,15 C4.790861,15 3,13.209139 3,11 C3,8.790861 4.790861,7 7,7 C7.41665567,7 7.81843235,7.06370454 8.19612127,7.18190486 C8.75960062,5.33975064 10.4733425,4 12.5,4 C14.9852814,4 17,6.01471863 17,8.5 C17,8.73456947 16.9820524,8.96494706 16.9474555,9.18983445 C17.2749642,9.06711064 17.6296448,9 18,9 C19.6568542,9 21,10.3431458 21,12 C21,13.6568542 19.6568542,15 18,15 L7,15 Z"/>
  </g>
</svg>
