<?xml version="1.0" encoding="utf-8"?>
<!-- Generator: Adobe Illustrator 26.2.1, SVG Export Plug-In . SVG Version: 6.00 Build 0)  -->
<!DOCTYPE svg PUBLIC "-//W3C//DTD SVG 1.1//EN" "http://www.w3.org/Graphics/SVG/1.1/DTD/svg11.dtd" [
	<!ENTITY ns_extend "http://ns.adobe.com/Extensibility/1.0/">
	<!ENTITY ns_ai "http://ns.adobe.com/AdobeIllustrator/10.0/">
	<!ENTITY ns_graphs "http://ns.adobe.com/Graphs/1.0/">
	<!ENTITY ns_vars "http://ns.adobe.com/Variables/1.0/">
	<!ENTITY ns_imrep "http://ns.adobe.com/ImageReplacement/1.0/">
	<!ENTITY ns_sfw "http://ns.adobe.com/SaveForWeb/1.0/">
	<!ENTITY ns_custom "http://ns.adobe.com/GenericCustomNamespace/1.0/">
	<!ENTITY ns_adobe_xpath "http://ns.adobe.com/XPath/1.0/">
]>
<svg version="1.1" id="Layer_1" xmlns:x="&ns_extend;" xmlns:i="&ns_ai;" xmlns:graph="&ns_graphs;"
	 xmlns="http://www.w3.org/2000/svg" xmlns:xlink="http://www.w3.org/1999/xlink" x="0px" y="0px" viewBox="0 0 231 32"
	 style="enable-background:new 0 0 231 32;" xml:space="preserve">
<metadata>
	<sfw  xmlns="&ns_sfw;">
		<slices></slices>
		<sliceSourceBounds  bottomLeftOrigin="true" height="30.2" width="227.3" x="1.9" y="1"></sliceSourceBounds>
	</sfw>
</metadata>
<defs>
	<filter id="Adobe_OpacityMaskFilter" filterUnits="userSpaceOnUse" x="100.5" y="0.8" width="30" height="30.2">
		<feColorMatrix  type="matrix" values="1 0 0 0 0  0 1 0 0 0  0 0 1 0 0  0 0 0 1 0"/>
	</filter>
</defs>
<mask maskUnits="userSpaceOnUse" x="100.5" y="0.8" width="30" height="30.2" id="mask0_00000018210370157481598280000004571212012859202732_">
	<circle style="fill:#FFFFFF;filter:url(#Adobe_OpacityMaskFilter);" cx="115.5" cy="16" r="15"/>
</mask>
<g style="mask:url(#mask0_00000018210370157481598280000004571212012859202732_);">
	<rect x="100.5" y="1" style="fill:#A9E6FD;" width="30" height="30"/>
	
		<linearGradient id="SVGID_1_" gradientUnits="userSpaceOnUse" x1="117.6693" y1="29.8784" x2="114.8562" y2="14.5658" gradientTransform="matrix(1 0 0 -1 0 34)">
		<stop  offset="0" style="stop-color:#FC3F1D"/>
		<stop  offset="1" style="stop-color:#FD8974"/>
	</linearGradient>
	<path style="fill-rule:evenodd;clip-rule:evenodd;fill:url(#SVGID_1_);" d="M115.5,0.8c8.3,0,15,6.8,15,15.2c0,0.7,0,1.3-0.1,2l0,0
		c0,0,0,0,0,0c-0.3,1.2-9.4,0.7-15.2-0.2c-6.3-1.1-14.4-3.1-14.4-4.6l0,0C102.1,6.1,108.2,0.8,115.5,0.8z"/>
	<path style="fill-rule:evenodd;clip-rule:evenodd;fill:#D12000;" d="M115.2,17.8c5.8,1,14.9,1.4,15.2,0.2c0.3-1.2-5.7-3.2-13.9-4.6
		c-2-0.3-15.4-2.3-15.8-0.3C100.8,14.7,108.9,16.7,115.2,17.8z"/>
	<path style="fill-rule:evenodd;clip-rule:evenodd;" d="M117.5,5.3c0.5,0.1,0.9,0.6,0.8,1.1l-3.1,18.1c-0.2,1.2,0.6,2.4,1.8,2.7
		s2.4-0.6,2.6-1.9l0.1-0.7c0.1-0.5,0.6-0.9,1.1-0.8s0.9,0.6,0.8,1.1l-0.1,0.7c-0.4,2.3-2.5,3.8-4.8,3.4c-2.3-0.4-3.8-2.6-3.4-4.9
		l3.1-18.1C116.5,5.6,116.9,5.2,117.5,5.3z"/>
	
		<linearGradient id="SVGID_00000035523324675012570690000016733841879843385481_" gradientUnits="userSpaceOnUse" x1="117.2036" y1="28.2999" x2="113.4226" y2="5.5035" gradientTransform="matrix(1 0 0 -1 0 34)">
		<stop  offset="0" style="stop-color:#FC3F1D"/>
		<stop  offset="1" style="stop-color:#FC3F1D;stop-opacity:0"/>
	</linearGradient>
	<path style="fill-rule:evenodd;clip-rule:evenodd;fill:url(#SVGID_00000035523324675012570690000016733841879843385481_);" d="
		M115.5,0.8c8.3,0,15,6.8,15,15.2c0,0.7,0,1.3-0.1,2l0,0c0.2-1.2-5.8-3.2-13.9-4.6c-2-0.3-15.4-2.3-15.8-0.3c0,0,0,0,0,0l0,0
		C102.1,6.1,108.2,0.8,115.5,0.8z"/>
</g>
<path style="fill:#FFFFFF;" d="M138.6,4.4V27h3.9V7.5h7V27h3.9V4.4H138.6z"/>
<path style="fill:#FFFFFF;" d="M163.3,10.3c-4.3,0-7.2,3-7.2,8.5c0,5.5,3,8.5,7.2,8.5c4.3,0,7.2-3,7.2-8.5
	C170.5,13.4,167.6,10.3,163.3,10.3z M163.3,24.3c-2.1,0-3.2-1.7-3.2-5.4c0-3.8,1.1-5.5,3.2-5.5c2.1,0,3.2,1.7,3.2,5.4
	C166.5,22.6,165.5,24.3,163.3,24.3z"/>
<path style="fill:#FFFFFF;" d="M173.1,10.7V27h3.9V13.7h6v-3.1H173.1z"/>
<path style="fill:#FFFFFF;" d="M191.2,10.3c-4.3,0-7.2,3-7.2,8.5c0,5.5,3,8.5,7.2,8.5c4.3,0,7.2-3,7.2-8.5
	C198.4,13.4,195.4,10.3,191.2,10.3z M191.2,24.3c-2.1,0-3.2-1.7-3.2-5.4c0-3.8,1.1-5.5,3.2-5.5s3.2,1.7,3.2,5.4
	C194.4,22.6,193.3,24.3,191.2,24.3z"/>
<path style="fill:#FFFFFF;" d="M214.8,23.9h-1.7V10.7h-11.3v1.4c0,4-0.3,9.2-1.6,11.9H199v6.8h3.6V27h8.7v3.7h3.6V23.9z M209.2,23.9
	h-5.5c1.1-2.5,1.4-6.9,1.4-9.8v-0.5h4.1V23.9z"/>
<path style="fill:#FFFFFF;" d="M229,15.9c0-4-2-5.5-6.1-5.5c-2.6,0-4.6,0.8-5.8,1.5v3.2c1-0.8,3.3-1.6,5.3-1.6
	c1.9,0,2.7,0.7,2.7,2.4v0.9h-0.6c-5.9,0-8.5,1.9-8.5,5.3s2,5.2,5,5.2c2.3,0,3.2-0.7,4-1.5h0.2c0,0.4,0.2,1,0.3,1.3h3.8
	c-0.1-1.3-0.2-2.7-0.2-4V15.9z M225.1,23.1c-0.5,0.7-1.4,1.3-2.8,1.3c-1.6,0-2.4-1-2.4-2.4c0-1.9,1.3-2.6,4.6-2.6h0.6V23.1z"/>
<path style="fill:#FFFFFF;" d="M12.9,27h3.9V4.4h-5.7c-5.8,0-8.8,3-8.8,7.3c0,3.5,1.7,5.5,4.6,7.6L1.9,27h4.3l5.7-8.5l-2-1.3
	c-2.4-1.6-3.6-2.9-3.6-5.6c0-2.4,1.7-4,4.9-4h1.8V27z M64.6,25.9v-3.2c-1.2,0.8-3.2,1.5-5.1,1.5c-2.8,0-3.9-1.3-4.1-4.1h9.3v-2
	c0-5.7-2.5-7.8-6.4-7.8c-4.7,0-7,3.6-7,8.5c0,5.7,2.8,8.5,7.7,8.5C61.6,27.3,63.4,26.7,64.6,25.9z M88.8,27.3c1.8,0,3.1-0.3,4-1
	v-3.2c-1,0.7-2.1,1.1-3.8,1.1c-2.8,0-3.9-2.1-3.9-5.5c0-3.5,1.4-5.4,3.9-5.4c1.5,0,3,0.5,3.7,1v-3.3c-0.8-0.5-2.2-0.8-4.2-0.8
	c-4.9,0-7.5,3.5-7.5,8.5C81.1,24.3,83.6,27.3,88.8,27.3z M29.2,10.7v6.5H24v-6.5h-3.9V27H24v-6.8h5.2V27H33V10.7H29.2z M50.5,23.9
	h-1.7V10.7H37.5v1.4c0,4-0.3,9.2-1.6,11.9h-1.2v6.8h3.6V27h8.7v3.7h3.6V23.9z M76.9,27h4.4l-6.2-8.8l5.5-7.5h-3.9l-5.5,7.5v-7.5
	h-3.9V27h3.9v-8L76.9,27z M58.3,13.4c1.9,0,2.5,1.6,2.5,3.6v0.3h-5.4C55.5,14.7,56.5,13.4,58.3,13.4z M44.9,23.9h-5.5
	c1.1-2.5,1.4-6.9,1.4-9.8v-0.5h4.1V23.9z"/>
</svg>
