<svg xmlns="http://www.w3.org/2000/svg" xmlns:xlink="http://www.w3.org/1999/xlink" width="507.62000000000006" height="85"><path fill="#fff" d="M33.41 71.74L43.69 71.74L43.69 12.67L28.73 12.67C13.69 12.67 5.78 20.40 5.78 31.79C5.78 40.89 10.12 46.24 17.85 51.77L4.42 71.74L15.56 71.74L30.52 49.39L25.33 45.90C19.04 41.65 15.98 38.34 15.98 31.20C15.98 24.91 20.40 20.66 28.82 20.66L33.41 20.66ZM168.47 68.85L168.47 60.61C165.33 62.73 160.06 64.60 155.13 64.60C147.73 64.60 144.93 61.12 144.50 53.98L168.90 53.98L168.90 48.62C168.90 33.75 162.35 28.14 152.24 28.14C139.91 28.14 134.05 37.57 134.05 50.49C134.05 65.37 141.36 72.59 154.28 72.59C160.74 72.59 165.50 70.89 168.47 68.85ZM231.71 72.59C236.39 72.59 239.70 71.74 242.17 69.96L242.17 61.71C239.62 63.50 236.56 64.60 232.31 64.60C225.08 64.60 222.11 58.99 222.11 50.15C222.11 40.89 225.76 36.13 232.39 36.13C236.30 36.13 240.13 37.49 242.17 38.76L242.17 30.18C240.04 28.99 236.30 28.14 231.29 28.14C218.37 28.14 211.65 37.40 211.65 50.41C211.65 64.69 218.20 72.59 231.71 72.59ZM75.82 28.99L75.82 45.90L62.31 45.90L62.31 28.99L52.19 28.99L52.19 71.74L62.31 71.74L62.31 53.89L75.82 53.89L75.82 71.74L85.94 71.74L85.94 28.99ZM131.58 63.75L127.08 63.75L127.08 28.99L97.58 28.99L97.58 32.64C97.58 43.10 96.90 56.61 93.33 63.75L90.19 63.75L90.19 81.52L99.54 81.52L99.54 71.74L122.23 71.74L122.23 81.52L131.58 81.52ZM200.77 71.74L212.25 71.74L196.01 48.71L210.29 28.99L200.09 28.99L185.81 48.71L185.81 28.99L175.70 28.99L175.70 71.74L185.81 71.74L185.81 50.75ZM152.06 36.13C157.08 36.13 158.61 40.29 158.61 45.65L158.61 46.50L144.50 46.50C144.76 39.70 147.22 36.13 152.06 36.13ZM116.96 63.75L102.68 63.75C105.49 57.29 106.25 45.65 106.25 38.25L106.25 36.98L116.96 36.98ZM265.97 12.67L265.97 71.74L276.25 71.74L276.25 20.66L294.61 20.66L294.61 71.74L304.90 71.74L304.90 12.67ZM330.57 28.14C319.43 28.14 311.70 36.04 311.70 50.41C311.70 64.69 319.43 72.59 330.57 72.59C341.70 72.59 349.44 64.69 349.44 50.32C349.44 36.04 341.70 28.14 330.57 28.14ZM330.57 64.60C324.96 64.60 322.15 60.27 322.15 50.41C322.15 40.46 324.96 36.13 330.57 36.13C336.18 36.13 338.98 40.46 338.98 50.32C338.98 60.27 336.18 64.60 330.57 64.60ZM356.24 28.99L356.24 71.74L366.35 71.74L366.35 36.98L381.99 36.98L381.99 28.99ZM403.41 28.14C392.28 28.14 384.54 36.04 384.54 50.41C384.54 64.69 392.28 72.59 403.41 72.59C414.55 72.59 422.28 64.69 422.28 50.32C422.28 36.04 414.55 28.14 403.41 28.14ZM403.41 64.60C397.80 64.60 395.00 60.27 395.00 50.41C395.00 40.46 397.80 36.13 403.41 36.13C409.02 36.13 411.82 40.46 411.82 50.32C411.82 60.27 409.02 64.60 403.41 64.60ZM466.65 63.75L462.15 63.75L462.15 28.99L432.65 28.99L432.65 32.64C432.65 43.10 431.97 56.61 428.40 63.75L425.26 63.75L425.26 81.52L434.61 81.52L434.61 71.74L457.30 71.74L457.30 81.52L466.65 81.52ZM452.03 63.75L437.75 63.75C440.56 57.29 441.32 45.65 441.32 38.25L441.32 36.98L452.03 36.98ZM503.71 42.59C503.71 32.22 498.44 28.31 487.73 28.31C481.02 28.31 475.75 30.43 472.69 32.22L472.69 40.63C475.41 38.59 481.36 36.38 486.54 36.38C491.39 36.38 493.60 38.08 493.60 42.67L493.60 45.05L491.98 45.05C476.51 45.05 469.63 50.15 469.63 58.82C469.63 67.49 474.90 72.34 482.72 72.34C488.67 72.34 491.22 70.38 493.17 68.34L493.60 68.34C493.68 69.45 494.02 70.89 494.36 71.74L504.22 71.74C503.88 68.26 503.71 64.77 503.71 61.29ZM493.60 61.54C492.32 63.41 489.94 64.94 486.37 64.94C482.12 64.94 480.00 62.39 480.00 58.57C480.00 53.55 483.48 51.77 492.15 51.77L493.60 51.77Z"/></svg>